<!DOCTYPE svg PUBLIC "-//W3C//DTD SVG 1.1//EN" "http://www.w3.org/Graphics/SVG/1.1/DTD/svg11.dtd">
<!-- Uploaded to: SVG Repo, www.svgrepo.com, Transformed by: SVG Repo Mixer Tools -->
<svg fill="#fff000" height="800px" width="800px" version="1.1" id="Layer_1" xmlns="http://www.w3.org/2000/svg" xmlns:xlink="http://www.w3.org/1999/xlink" viewBox="0 0 472.618 472.618" xml:space="preserve" stroke="#fff000">
<g id="SVGRepo_bgCarrier" stroke-width="0"/>
<g id="SVGRepo_tracerCarrier" stroke-linecap="round" stroke-linejoin="round" stroke="#000000" stroke-width="14.178539999999998"> <g> <g> <path d="M104.894,17.612l-9.846,6.133v429.18H47.154v19.692h115.481v-19.692H114.74V215.879 c103.574-48.573,207.15,64.243,310.724,5.106c0-67.792,0-135.583,0-203.373C318.607,78.624,211.749-43.399,104.894,17.612z"/> </g> </g> </g>
<g id="SVGRepo_iconCarrier"> <g> <g> <path d="M104.894,17.612l-9.846,6.133v429.18H47.154v19.692h115.481v-19.692H114.74V215.879 c103.574-48.573,207.15,64.243,310.724,5.106c0-67.792,0-135.583,0-203.373C318.607,78.624,211.749-43.399,104.894,17.612z"/> </g> </g> </g>
</svg>